<?xml version="1.0" encoding="UTF-8"?>
<!DOCTYPE svg  PUBLIC '-//W3C//DTD SVG 1.1//EN'  'http://www.w3.org/Graphics/SVG/1.1/DTD/svg11.dtd'>
<svg clip-rule="evenodd" fill-rule="evenodd" stroke-linejoin="round" stroke-miterlimit="2" version="1.1" viewBox="0 0 605 196" xml:space="preserve" xmlns="http://www.w3.org/2000/svg">
    <g fill="#ff6060" fill-rule="nonzero">
        <path d="m57.666 99.784-32.272 33.084v46.424h-25.394v-179.29h25.394v100.32l96.286-100.32h29.097l-75.653 80.575 80.944 98.717h-29.627l-68.775-79.508z"/>
        <path d="m341.23 164.88 10.051-19.209c11.639 8.003 29.626 13.873 47.085 13.873 22.748 0 31.744-6.937 31.744-18.676 0-30.416-85.178-4.269-85.178-58.163 0-24.546 21.691-40.554 56.079-40.554 17.457 0 37.561 4.803 49.203 12.273l-10.584 19.21c-12.166-8.005-25.393-10.673-38.619-10.673-21.161 0-31.742 8.005-31.742 18.677 0 32.016 85.174 5.869 85.174 58.696 0 24.546-22.217 40.021-58.193 40.021-21.691 0.534-43.911-6.404-55.021-15.475h1e-3z"/>
        <path d="m604.17 97.116v82.176h-23.279v-18.143c-7.934 12.273-23.275 19.21-44.438 19.21-30.683 0-49.729-16.542-49.729-40.021 0-21.878 13.754-39.486 53.962-39.486h38.617v-4.803c0-20.811-12.167-32.55-35.975-32.55-15.871 0-32.271 5.87-42.85 14.408l-10.054-18.677c13.758-11.205 33.862-17.609 55.55-17.609 37.562 0.534 58.196 18.676 58.196 55.495zm-24.338 40.554v-19.21h-37.558c-24.338 0-31.217 9.605-31.217 20.811 0 13.34 11.113 21.878 29.629 21.878 18.517 0.534 33.329-7.471 39.146-23.479z"/>
        <path d="m262.93 143.54v36.285l15.343-9.071v-36.285l-15.343 9.071z"/>
        <path d="m305.26 99.251-62.956-36.819-34.917-20.277-34.388 60.298 0.529 56.562 62.427 36.818 6.349-3.735v-53.361l28.039-49.625 28.569 16.542v53.361l6.348-3.736v-56.028z"/>
    </g>
</svg>
